<svg xmlns="http://www.w3.org/2000/svg" viewBox="-400 0 2100 1050">
<defs><style>.cls{fill:#28cf28;}</style></defs>
<g>
<path xmlns="http://www.w3.org/2000/svg" class="cls" d="M856.46,527.76a46,46,0,0,0-64.21-.89l-2,1.85v12l8-7.47h0a37.31,37.31,0,0,1,52,.72,9.25,9.25,0,0,1,1.31,1.64,41.39,41.39,0,0,1,10.24,4.91A18.14,18.14,0,0,0,856.46,527.76Z"/>
<path xmlns="http://www.w3.org/2000/svg" class="cls" d="M750.23,357.51a29.34,29.34,0,0,0-15.75,4.56,29.24,29.24,0,0,1,4,7.87,20.5,20.5,0,0,1,29.72,7,23.93,23.93,0,0,1,10.81,4.1C775.88,367.39,764.37,357.51,750.23,357.51Z"/>

<path xmlns="http://www.w3.org/2000/svg" class="cls" d="M698.18,331.63a31.25,31.25,0,0,0-26.43,14.59,28.78,28.78,0,0,0-4.3-5.74,29.25,29.25,0,0,0-21.32-8.85,29.59,29.59,0,0,0-29.56,29.56V384a26.35,26.35,0,0,0-17.7-6.81c-14.83,0-26.45,12-26.45,27.34V585.72a98.73,98.73,0,0,0,54,88.14,94.61,94.61,0,0,1-24.68-30.73,90,90,0,0,1-20.6-57.41V404.54c0-9,6.21-18.59,17.7-18.59A17.71,17.71,0,0,1,615,396.5a21.88,21.88,0,0,1,10.28,3.23V361.19a20.83,20.83,0,0,1,20.81-20.81,20.6,20.6,0,0,1,15,6.17,20.1,20.1,0,0,1,3.28,4.55,24.69,24.69,0,0,1,12.28,5.06,22.29,22.29,0,0,1,40.43-5,25.44,25.44,0,0,1,11.17,4.59,33.8,33.8,0,0,0-7.39-14A30.11,30.11,0,0,0,698.18,331.63Z"/>


<path xmlns="http://www.w3.org/2000/svg" class="cls" d="M666.94,490.05h8.75V362.86a22.51,22.51,0,0,1,1-6.7,24.69,24.69,0,0,0-12.28-5.06,21.5,21.5,0,0,1,2.51,10.16Z"/>

<path xmlns="http://www.w3.org/2000/svg" class="cls" d="M616.57,490.05h8.75V399.73A21.88,21.88,0,0,0,615,396.5a17.43,17.43,0,0,1,1.53,7.15Z"/>

<path xmlns="http://www.w3.org/2000/svg" class="cls" d="M720.66,490.05h8.75v-103a20.77,20.77,0,0,1,9-17.13,29.24,29.24,0,0,0-4-7.87,29.77,29.77,0,0,0-5.07,4V364.3a34,34,0,0,0-1.1-8.52,25.44,25.44,0,0,0-11.17-4.59,24.89,24.89,0,0,1,3.52,13.11Z"/>

<path xmlns="http://www.w3.org/2000/svg" class="cls" d="M851.6,535.61a9.44,9.44,0,0,1-1,11.49l-75.16,81.54c-30,33.28-60.56,46.86-105.39,46.86a88.33,88.33,0,0,1-68.26-32.37,94.61,94.61,0,0,0,24.68,30.73A96.13,96.13,0,0,0,670,684.25c25,0,46.17-4.27,64.71-13,16.75-7.93,31.74-19.6,47.15-36.68L857,553a18.14,18.14,0,0,0,4.83-12.51A41.39,41.39,0,0,0,851.6,535.61Z"/>

<path xmlns="http://www.w3.org/2000/svg" class="cls" d="M681.84,572.55a56.14,56.14,0,0,1,42.53-19.47h51a4.47,4.47,0,0,0,3-1.19l11.88-11.17v-12l-10.5,9.87V388.41a33.54,33.54,0,0,0-.82-7.36,23.93,23.93,0,0,0-10.81-4.1A23.14,23.14,0,0,1,771,388.41V544.33H724.37a64.9,64.9,0,0,0-49.15,22.5Z"/>
</g>
</svg>
