<svg xmlns="http://www.w3.org/2000/svg" viewBox="-700 0 2100 1050">
<defs><style>.cls{fill:#28cf28;}</style></defs>
<g>
<path xmlns="http://www.w3.org/2000/svg" class="cls" d="M194,569.59V537a33.43,33.43,0,0,0,6.13,5.25V530.71a24.45,24.45,0,0,1-6.13-16.2V476.66a24.53,24.53,0,0,1,40.79-18.39,33,33,0,0,1,17.06,5.55V439.28a26.39,26.39,0,0,1,43.39-20.21,35,35,0,0,1,21,8.63,26.72,26.72,0,0,1,41-8.63A35.35,35.35,0,0,1,378,427.45a22,22,0,0,1,34.93-6.08,30.62,30.62,0,0,1,12.65,2.88A30.76,30.76,0,0,0,371,422a35.48,35.48,0,0,0-61.86.44,35.16,35.16,0,0,0-66,16.84v14.9a33.29,33.29,0,0,0-57.85,22.48v92.93a110.12,110.12,0,0,0,40.13,85,110.19,110.19,0,0,1-21.34-41A100.91,100.91,0,0,1,194,569.59Z"/>
<path xmlns="http://www.w3.org/2000/svg" class="cls" d="M310.15,679.88c72.48,0,131.45-59,131.45-131.45v0h0v0h0a57.1,57.1,0,0,0-13.16-36.43V437.25a30.62,30.62,0,0,0-2.89-13,30.62,30.62,0,0,0-12.65-2.88,22,22,0,0,1,6.79,15.88v66.18a57,57,0,0,0-35.31-12.22h-8.73v-54a21.8,21.8,0,0,1,2.32-9.8,35.35,35.35,0,0,0-20.71-8.38,26.7,26.7,0,0,1,9.64,20.55v51.59H313.4V439.62a26.53,26.53,0,0,1,2.82-11.92,35,35,0,0,0-21-8.63,26.35,26.35,0,0,1,9.44,20.21v51.93H257.8a14.73,14.73,0,0,0-6,1.26V476.66h0V463.82a33,33,0,0,0-17.06-5.55,24.45,24.45,0,0,1,8.31,18.39v37.85a24.53,24.53,0,0,1-43,16.2v11.52A33.25,33.25,0,0,0,247,531.8a50.32,50.32,0,0,0,46.34,30.84h32.26a55.33,55.33,0,0,0-25.5,46.59V624.3h8.75V609.23a46.63,46.63,0,0,1,46.58-46.59h.72v-8.75H293.31a41.54,41.54,0,0,1-41.49-41.49v-6.47a6,6,0,0,1,6-6H384.38a48.45,48.45,0,0,1,48.47,48.33h0v0h0v0h0v0a122.84,122.84,0,0,1-122.7,122.7H295.51A101.67,101.67,0,0,1,204,613.58a110.19,110.19,0,0,0,21.34,41,109.8,109.8,0,0,0,70.16,25.26Z"/>
</g>
</svg>
