<svg xmlns="http://www.w3.org/2000/svg"><defs><style>.cls-1{fill:#fffaff;}</style></defs><title>retro-offset-rock-paper-scissors-icons</title><g id="Icons"><path class="cls-3" d="M1197.24,330.77a30.26,30.26,0,0,0-3.35-5.64,29.82,29.82,0,0,0-53.35,13.78l-9.59,65.8-6.36,43.63-15.86-109A29.85,29.85,0,0,0,1075,314a29.84,29.84,0,0,0-25.38,33.69l13.5,96.05a31.44,31.44,0,0,0-11.91-2.38h-.09a31.47,31.47,0,0,0-31.43,31.44v2.69a31.42,31.42,0,0,0-54.12,21.74v73.38a111.33,111.33,0,0,0,28.25,74.23,108.8,108.8,0,0,0,12.06,11.59,102.27,102.27,0,0,0,58.51,23.27q3.43.23,6.85.23a106.33,106.33,0,0,0,72.54-28.52c21.6-20.25,33.49-48.73,33.49-80.19h0c0-64.79,0-64.79,9.36-130.6,3.1-21.77,7.34-51.59,12.93-93.34A29.66,29.66,0,0,0,1197.24,330.77Zm-168.76,142a22.71,22.71,0,0,1,22.68-22.69h.06a22.68,22.68,0,0,1,11.6,3.23,23.15,23.15,0,0,1,3.83,2.91,22.61,22.61,0,0,1,7.19,16.55V514h-35.93a18.22,18.22,0,0,0-9.43,2.61V472.75Zm-54.12,24.43a22.69,22.69,0,0,1,45.37,0v32.55a17.61,17.61,0,0,0-.19,2.63c0,.24,0,.49,0,.74a22.69,22.69,0,0,1-45.19-2.88ZM1137.84,645A97.62,97.62,0,0,1,1065,670.92c-24.71-1.6-47.65-12.95-64.6-31.95a102.87,102.87,0,0,1-26-68.41V552a31.62,31.62,0,0,0,6.13,5,31.37,31.37,0,0,0,42.15-8.49,43.26,43.26,0,0,0,40.08,27.1h13.42a49.53,49.53,0,0,0-21.46,40.8V629.7h8.75V616.34a40.85,40.85,0,0,1,40.8-40.8v-8.75h-41.51a34.47,34.47,0,0,1-34.41-33.3c.1-1,.16-2,.17-3a9.63,9.63,0,0,1,9.43-7.73h82.22a48.48,48.48,0,0,1,48.43,48.43C1168.56,600.19,1157.65,626.4,1137.84,645ZM1190.94,346c-5.6,41.74-9.84,71.54-12.93,93.3-7.71,54.2-9.13,64.17-9.39,101.55a57.21,57.21,0,0,0-48.49-26.9h-37.54V472.75a31.24,31.24,0,0,0-4.93-16.89,31.69,31.69,0,0,0-4.77-5.8l-14.56-103.64a21.07,21.07,0,0,1,41.74-5.84l20.19,138.75a4.38,4.38,0,0,0,8.66,0l6.45-44.27,13.83-94.91a21.08,21.08,0,0,1,41.74,5.89Z"/><path class="cls-3" d="M856.46,527.76a46,46,0,0,0-64.21-.89l-2,1.85v12l8-7.47h0a37.31,37.31,0,0,1,52,.72,9.25,9.25,0,0,1,1.31,1.64,41.39,41.39,0,0,1,10.24,4.91A18.14,18.14,0,0,0,856.46,527.76Z"/><path class="cls-3" d="M750.23,357.51a29.34,29.34,0,0,0-15.75,4.56,29.24,29.24,0,0,1,4,7.87,20.5,20.5,0,0,1,29.72,7,23.93,23.93,0,0,1,10.81,4.1C775.88,367.39,764.37,357.51,750.23,357.51Z"/><path class="cls-3" d="M698.18,331.63a31.25,31.25,0,0,0-26.43,14.59,28.78,28.78,0,0,0-4.3-5.74,29.25,29.25,0,0,0-21.32-8.85,29.59,29.59,0,0,0-29.56,29.56V384a26.35,26.35,0,0,0-17.7-6.81c-14.83,0-26.45,12-26.45,27.34V585.72a98.73,98.73,0,0,0,54,88.14,94.61,94.61,0,0,1-24.68-30.73,90,90,0,0,1-20.6-57.41V404.54c0-9,6.21-18.59,17.7-18.59A17.71,17.71,0,0,1,615,396.5a21.88,21.88,0,0,1,10.28,3.23V361.19a20.83,20.83,0,0,1,20.81-20.81,20.6,20.6,0,0,1,15,6.17,20.1,20.1,0,0,1,3.28,4.55,24.69,24.69,0,0,1,12.28,5.06,22.29,22.29,0,0,1,40.43-5,25.44,25.44,0,0,1,11.17,4.59,33.8,33.8,0,0,0-7.39-14A30.11,30.11,0,0,0,698.18,331.63Z"/><path class="cls-2" d="M729.41,366.09a29.77,29.77,0,0,1,5.07-4,27.09,27.09,0,0,0-6.17-6.29,34,34,0,0,1,1.1,8.52Z"/><path class="cls-4" d="M666.94,490.05h8.75V362.86a22.51,22.51,0,0,1,1-6.7,24.69,24.69,0,0,0-12.28-5.06,21.5,21.5,0,0,1,2.51,10.16Z"/><path class="cls-4" d="M616.57,490.05h8.75V399.73A21.88,21.88,0,0,0,615,396.5a17.43,17.43,0,0,1,1.53,7.15Z"/><path class="cls-4" d="M720.66,490.05h8.75v-103a20.77,20.77,0,0,1,9-17.13,29.24,29.24,0,0,0-4-7.87,29.77,29.77,0,0,0-5.07,4V364.3a34,34,0,0,0-1.1-8.52,25.44,25.44,0,0,0-11.17-4.59,24.89,24.89,0,0,1,3.52,13.11Z"/><path class="cls-4" d="M851.6,535.61a9.44,9.44,0,0,1-1,11.49l-75.16,81.54c-30,33.28-60.56,46.86-105.39,46.86a88.33,88.33,0,0,1-68.26-32.37,94.61,94.61,0,0,0,24.68,30.73A96.13,96.13,0,0,0,670,684.25c25,0,46.17-4.27,64.71-13,16.75-7.93,31.74-19.6,47.15-36.68L857,553a18.14,18.14,0,0,0,4.83-12.51A41.39,41.39,0,0,0,851.6,535.61Z"/><path class="cls-4" d="M681.84,572.55a56.14,56.14,0,0,1,42.53-19.47h51a4.47,4.47,0,0,0,3-1.19l11.88-11.17v-12l-10.5,9.87V388.41a33.54,33.54,0,0,0-.82-7.36,23.93,23.93,0,0,0-10.81-4.1A23.14,23.14,0,0,1,771,388.41V544.33H724.37a64.9,64.9,0,0,0-49.15,22.5Z"/><path class="cls-3" d="M194,569.59V537a33.43,33.43,0,0,0,6.13,5.25V530.71a24.45,24.45,0,0,1-6.13-16.2V476.66a24.53,24.53,0,0,1,40.79-18.39,33,33,0,0,1,17.06,5.55V439.28a26.39,26.39,0,0,1,43.39-20.21,35,35,0,0,1,21,8.63,26.72,26.72,0,0,1,41-8.63A35.35,35.35,0,0,1,378,427.45a22,22,0,0,1,34.93-6.08,30.62,30.62,0,0,1,12.65,2.88A30.76,30.76,0,0,0,371,422a35.48,35.48,0,0,0-61.86.44,35.16,35.16,0,0,0-66,16.84v14.9a33.29,33.29,0,0,0-57.85,22.48v92.93a110.12,110.12,0,0,0,40.13,85,110.19,110.19,0,0,1-21.34-41A100.91,100.91,0,0,1,194,569.59Z"/><path class="cls-4" d="M310.15,679.88c72.48,0,131.45-59,131.45-131.45v0h0v0h0a57.1,57.1,0,0,0-13.16-36.43V437.25a30.62,30.62,0,0,0-2.89-13,30.62,30.62,0,0,0-12.65-2.88,22,22,0,0,1,6.79,15.88v66.18a57,57,0,0,0-35.31-12.22h-8.73v-54a21.8,21.8,0,0,1,2.32-9.8,35.35,35.35,0,0,0-20.71-8.38,26.7,26.7,0,0,1,9.64,20.55v51.59H313.4V439.62a26.53,26.53,0,0,1,2.82-11.92,35,35,0,0,0-21-8.63,26.35,26.35,0,0,1,9.44,20.21v51.93H257.8a14.73,14.73,0,0,0-6,1.26V476.66h0V463.82a33,33,0,0,0-17.06-5.55,24.45,24.45,0,0,1,8.31,18.39v37.85a24.53,24.53,0,0,1-43,16.2v11.52A33.25,33.25,0,0,0,247,531.8a50.32,50.32,0,0,0,46.34,30.84h32.26a55.33,55.33,0,0,0-25.5,46.59V624.3h8.75V609.23a46.63,46.63,0,0,1,46.58-46.59h.72v-8.75H293.31a41.54,41.54,0,0,1-41.49-41.49v-6.47a6,6,0,0,1,6-6H384.38a48.45,48.45,0,0,1,48.47,48.33h0v0h0v0h0v0a122.84,122.84,0,0,1-122.7,122.7H295.51A101.67,101.67,0,0,1,204,613.58a110.19,110.19,0,0,0,21.34,41,109.8,109.8,0,0,0,70.16,25.26Z"/></g></svg>