<svg xmlns="http://www.w3.org/2000/svg" viewBox="0 0 2100 1050" width="100%" >
<defs><style>.cls{fill:#28cf28;}</style></defs>
<g>
<path class="cls" d="M1197.24,330.77a30.26,30.26,0,0,0-3.35-5.64,29.82,29.82,0,0,0-53.35,13.78l-9.59,65.8-6.36,43.63-15.86-109A29.85,29.85,0,0,0,1075,314a29.84,29.84,0,0,0-25.38,33.69l13.5,96.05a31.44,31.44,0,0,0-11.91-2.38h-.09a31.47,31.47,0,0,0-31.43,31.44v2.69a31.42,31.42,0,0,0-54.12,21.74v73.38a111.33,111.33,0,0,0,28.25,74.23,108.8,108.8,0,0,0,12.06,11.59,102.27,102.27,0,0,0,58.51,23.27q3.43.23,6.85.23a106.33,106.33,0,0,0,72.54-28.52c21.6-20.25,33.49-48.73,33.49-80.19h0c0-64.79,0-64.79,9.36-130.6,3.1-21.77,7.34-51.59,12.93-93.34A29.66,29.66,0,0,0,1197.24,330.77Zm-168.76,142a22.71,22.71,0,0,1,22.68-22.69h.06a22.68,22.68,0,0,1,11.6,3.23,23.15,23.15,0,0,1,3.83,2.91,22.61,22.61,0,0,1,7.19,16.55V514h-35.93a18.22,18.22,0,0,0-9.43,2.61V472.75Zm-54.12,24.43a22.69,22.69,0,0,1,45.37,0v32.55a17.61,17.61,0,0,0-.19,2.63c0,.24,0,.49,0,.74a22.69,22.69,0,0,1-45.19-2.88ZM1137.84,645A97.62,97.62,0,0,1,1065,670.92c-24.71-1.6-47.65-12.95-64.6-31.95a102.87,102.87,0,0,1-26-68.41V552a31.62,31.62,0,0,0,6.13,5,31.37,31.37,0,0,0,42.15-8.49,43.26,43.26,0,0,0,40.08,27.1h13.42a49.53,49.53,0,0,0-21.46,40.8V629.7h8.75V616.34a40.85,40.85,0,0,1,40.8-40.8v-8.75h-41.51a34.47,34.47,0,0,1-34.41-33.3c.1-1,.16-2,.17-3a9.63,9.63,0,0,1,9.43-7.73h82.22a48.48,48.48,0,0,1,48.43,48.43C1168.56,600.19,1157.65,626.4,1137.84,645ZM1190.94,346c-5.6,41.74-9.84,71.54-12.93,93.3-7.71,54.2-9.13,64.17-9.39,101.55a57.21,57.21,0,0,0-48.49-26.9h-37.54V472.75a31.24,31.24,0,0,0-4.93-16.89,31.69,31.69,0,0,0-4.77-5.8l-14.56-103.64a21.07,21.07,0,0,1,41.74-5.84l20.19,138.75a4.38,4.38,0,0,0,8.66,0l6.45-44.27,13.83-94.91a21.08,21.08,0,0,1,41.74,5.89Z"/>
</g>
</svg>
